<svg xmlns="http://www.w3.org/2000/svg" xmlns:xlink="http://www.w3.org/1999/xlink" width="960" height="537.62"><rect width="960" height="537.62" rx="5" ry="5" class="a"/><svg y="0%" x="0%"><circle cx="20" cy="20" r="6" fill="#ff5f58"/><circle cx="40" cy="20" r="6" fill="#ffbd2e"/><circle cx="60" cy="20" r="6" fill="#18c132"/></svg><svg height="477.62" viewBox="0 0 92 47.762" width="920" x="15" xmlns="http://www.w3.org/2000/svg" xmlns:xlink="http://www.w3.org/1999/xlink" y="50"><style>@keyframes i{0%{transform:translateX(0)}5.9%{transform:translateX(-92px)}6.6%{transform:translateX(-184px)}7.4%{transform:translateX(-276px)}8.1%{transform:translateX(-368px)}8.9%{transform:translateX(-460px)}9.6%{transform:translateX(-552px)}10.3%{transform:translateX(-644px)}11.1%{transform:translateX(-736px)}11.8%{transform:translateX(-828px)}12.6%{transform:translateX(-920px)}13.3%{transform:translateX(-1012px)}14%{transform:translateX(-1104px)}14.8%{transform:translateX(-1196px)}15.5%{transform:translateX(-1288px)}16.2%{transform:translateX(-1380px)}17%{transform:translateX(-1472px)}17.7%{transform:translateX(-1564px)}18.5%{transform:translateX(-1656px)}19.2%{transform:translateX(-1748px)}19.9%{transform:translateX(-1840px)}20.7%{transform:translateX(-1932px)}21.4%{transform:translateX(-2024px)}22.2%{transform:translateX(-2116px)}22.9%{transform:translateX(-2208px)}23.6%{transform:translateX(-2300px)}31%{transform:translateX(-2392px)}32.6%{transform:translateX(-2484px)}34.3%{transform:translateX(-2576px)}35.9%{transform:translateX(-2668px)}37.5%{transform:translateX(-2760px)}39.1%{transform:translateX(-2852px)}40.8%{transform:translateX(-2944px)}42.4%{transform:translateX(-3036px)}44%{transform:translateX(-3128px)}45.6%{transform:translateX(-3220px)}47.3%{transform:translateX(-3312px)}48.9%{transform:translateX(-3404px)}50.5%{transform:translateX(-3496px)}52.1%{transform:translateX(-3588px)}53.8%{transform:translateX(-3680px)}55.4%{transform:translateX(-3772px)}57%{transform:translateX(-3864px)}58.6%{transform:translateX(-3956px)}to{transform:translateX(-4048px)}}.a{fill:#282d35}.f{fill:#b9c0cb;white-space:pre}</style><g font-family="Monaco,Consolas,Menlo,'Bitstream Vera Sans Mono','Powerline Symbols',monospace" font-size="1.67"><defs><symbol id="1"><text y="1.67" class="f">$</text><text x="2.004" y="1.67" class="f">prodgate</text></symbol><symbol id="2"><text y="1.67" class="f">$</text><text x="2.004" y="1.67" class="f">prodgate</text><text x="11.022" y="1.67" class="f">check</text></symbol><symbol id="3"><text y="1.67" class="f">$</text><text x="2.004" y="1.67" class="f">prodgate</text><text x="11.022" y="1.67" class="f">check</text><text x="17.034" y="1.67" class="f">plan.json</text></symbol><symbol id="4"><text y="1.67" class="f">Prodgate</text><text x="9.018" y="1.67" class="f">Infrastructure</text><text x="24.048" y="1.67" class="f">Change</text><text x="31.062" y="1.67" class="f">Report</text></symbol><symbol id="5"><text y="1.67" class="f">──────────────────────────────────────────────────</text></symbol><symbol id="6"><text y="1.67" class="f">Resources</text><text x="10.02" y="1.67" class="f">scanned:</text><text x="19.038" y="1.67" class="f">9</text></symbol><symbol id="7"><text y="1.67" class="f">Plan</text><text x="5.01" y="1.67" class="f">summary:</text><text x="14.028" y="1.67" class="f">6</text><text x="16.032" y="1.67" class="f">to</text><text x="19.038" y="1.67" class="f">add,</text><text x="24.048" y="1.67" class="f">2</text><text x="26.052" y="1.67" class="f">to</text><text x="29.058" y="1.67" class="f">change,</text><text x="37.074" y="1.67" class="f">1</text><text x="39.078" y="1.67" class="f">to</text><text x="42.084" y="1.67" class="f">destroy</text></symbol><symbol id="8"><text y="1.67" class="f">[CRITICAL]</text><text x="11.022" y="1.67" class="f">1</text><text x="13.026" y="1.67" class="f">destructive</text><text x="25.05" y="1.67" class="f">or</text><text x="28.056" y="1.67" class="f">dangerous</text><text x="38.076" y="1.67" class="f">change</text></symbol><symbol id="9"><text x="2.004" y="1.67" class="f">DELETE</text><text x="11.022" y="1.67" class="f">aws_db_instance.production</text><text x="46.092" y="1.67" class="f">deletes</text><text x="54.108" y="1.67" class="f">a</text><text x="56.112" y="1.67" class="f">stateful</text><text x="65.13" y="1.67" class="f">resource</text><text x="74.148" y="1.67" class="f">(data</text><text x="80.16" y="1.67" class="f">loss)</text></symbol><symbol id="10"><text y="1.67" class="f">[AI-AGENT]</text><text x="11.022" y="1.67" class="f">This</text><text x="16.032" y="1.67" class="f">plan</text><text x="21.042" y="1.67" class="f">appears</text><text x="29.058" y="1.67" class="f">to</text><text x="32.064" y="1.67" class="f">be</text><text x="35.07" y="1.67" class="f">generated</text><text x="45.09" y="1.67" class="f">by</text><text x="48.096" y="1.67" class="f">an</text><text x="51.102" y="1.67" class="f">AI</text><text x="54.108" y="1.67" class="f">agent.</text></symbol><symbol id="11"><text x="11.022" y="1.67" class="f">co-author</text><text x="21.042" y="1.67" class="f">trailer:</text><text x="30.06" y="1.67" class="f">Claude</text><text x="37.074" y="1.67" class="f">&lt;noreply@anthropic.com&gt;</text></symbol><symbol id="12"><text y="1.67" class="f">Verdict:</text><text x="9.018" y="1.67" class="f">FAIL</text></symbol><symbol id="13"><text y="1.67" class="f">Plan</text><text x="5.01" y="1.67" class="f">hash:</text><text x="11.022" y="1.67" class="f">sha256:9cbe261268f1eab1a8de21e0ff4c623197207137660157450cf2c911d1da95ce</text></symbol><symbol id="a"><path fill="transparent" d="M0 0h92v23H0z"/></symbol><symbol id="b"><path fill="#6f7683" d="M0 0h1.102v2.171H0z"/></symbol></defs><path class="a" d="M0 0h92v47.762H0z"/><g style="animation-duration:6.77s;animation-iteration-count:infinite;animation-name:i;animation-timing-function:steps(1,end)"><svg width="4140"><svg><use xlink:href="#a"/><use xlink:href="#b" x="-.004"/></svg><svg x="92"><use xlink:href="#a"/><use xlink:href="#b" x="1.996"/><text y="1.67" class="f">$</text></svg><svg x="184"><use xlink:href="#a"/><use xlink:href="#b" x="2.996"/><text y="1.67" class="f">$</text><text x="2.004" y="1.67" class="f">p</text></svg><svg x="276"><use xlink:href="#a"/><use xlink:href="#b" x="3.996"/><text y="1.67" class="f">$</text><text x="2.004" y="1.67" class="f">pr</text></svg><svg x="368"><use xlink:href="#a"/><use xlink:href="#b" x="4.996"/><text y="1.67" class="f">$</text><text x="2.004" y="1.67" class="f">pro</text></svg><svg x="460"><use xlink:href="#a"/><use xlink:href="#b" x="5.996"/><text y="1.67" class="f">$</text><text x="2.004" y="1.67" class="f">prod</text></svg><svg x="552"><use xlink:href="#a"/><use xlink:href="#b" x="6.996"/><text y="1.67" class="f">$</text><text x="2.004" y="1.67" class="f">prodg</text></svg><svg x="644"><use xlink:href="#a"/><use xlink:href="#b" x="7.996"/><text y="1.67" class="f">$</text><text x="2.004" y="1.67" class="f">prodga</text></svg><svg x="736"><use xlink:href="#a"/><use xlink:href="#b" x="8.996"/><text y="1.67" class="f">$</text><text x="2.004" y="1.67" class="f">prodgat</text></svg><svg x="828"><use xlink:href="#a"/><use xlink:href="#b" x="9.996"/><use xlink:href="#1"/></svg><svg x="920"><use xlink:href="#a"/><use xlink:href="#b" x="10.996"/><use xlink:href="#1"/></svg><svg x="1012"><use xlink:href="#a"/><use xlink:href="#b" x="11.996"/><text y="1.67" class="f">$</text><text x="2.004" y="1.67" class="f">prodgate</text><text x="11.022" y="1.67" class="f">c</text></svg><svg x="1104"><use xlink:href="#a"/><use xlink:href="#b" x="12.996"/><text y="1.67" class="f">$</text><text x="2.004" y="1.67" class="f">prodgate</text><text x="11.022" y="1.67" class="f">ch</text></svg><svg x="1196"><use xlink:href="#a"/><use xlink:href="#b" x="13.996"/><text y="1.67" class="f">$</text><text x="2.004" y="1.67" class="f">prodgate</text><text x="11.022" y="1.67" class="f">che</text></svg><svg x="1288"><use xlink:href="#a"/><use xlink:href="#b" x="14.996"/><text y="1.67" class="f">$</text><text x="2.004" y="1.67" class="f">prodgate</text><text x="11.022" y="1.67" class="f">chec</text></svg><svg x="1380"><use xlink:href="#a"/><use xlink:href="#b" x="15.996"/><use xlink:href="#2"/></svg><svg x="1472"><use xlink:href="#a"/><use xlink:href="#b" x="16.996"/><use xlink:href="#2"/></svg><svg x="1564"><use xlink:href="#a"/><use xlink:href="#b" x="17.996"/><text y="1.67" class="f">$</text><text x="2.004" y="1.67" class="f">prodgate</text><text x="11.022" y="1.67" class="f">check</text><text x="17.034" y="1.67" class="f">p</text></svg><svg x="1656"><use xlink:href="#a"/><use xlink:href="#b" x="18.996"/><text y="1.67" class="f">$</text><text x="2.004" y="1.67" class="f">prodgate</text><text x="11.022" y="1.67" class="f">check</text><text x="17.034" y="1.67" class="f">pl</text></svg><svg x="1748"><use xlink:href="#a"/><use xlink:href="#b" x="19.996"/><text y="1.67" class="f">$</text><text x="2.004" y="1.67" class="f">prodgate</text><text x="11.022" y="1.67" class="f">check</text><text x="17.034" y="1.67" class="f">pla</text></svg><svg x="1840"><use xlink:href="#a"/><use xlink:href="#b" x="20.996"/><text y="1.67" class="f">$</text><text x="2.004" y="1.67" class="f">prodgate</text><text x="11.022" y="1.67" class="f">check</text><text x="17.034" y="1.67" class="f">plan</text></svg><svg x="1932"><use xlink:href="#a"/><use xlink:href="#b" x="21.996"/><text y="1.67" class="f">$</text><text x="2.004" y="1.67" class="f">prodgate</text><text x="11.022" y="1.67" class="f">check</text><text x="17.034" y="1.67" class="f">plan.</text></svg><svg x="2024"><use xlink:href="#a"/><use xlink:href="#b" x="22.996"/><text y="1.67" class="f">$</text><text x="2.004" y="1.67" class="f">prodgate</text><text x="11.022" y="1.67" class="f">check</text><text x="17.034" y="1.67" class="f">plan.j</text></svg><svg x="2116"><use xlink:href="#a"/><use xlink:href="#b" x="23.996"/><text y="1.67" class="f">$</text><text x="2.004" y="1.67" class="f">prodgate</text><text x="11.022" y="1.67" class="f">check</text><text x="17.034" y="1.67" class="f">plan.js</text></svg><svg x="2208"><use xlink:href="#a"/><use xlink:href="#b" x="24.996"/><text y="1.67" class="f">$</text><text x="2.004" y="1.67" class="f">prodgate</text><text x="11.022" y="1.67" class="f">check</text><text x="17.034" y="1.67" class="f">plan.jso</text></svg><svg x="2300"><use xlink:href="#a"/><use xlink:href="#b" x="25.996"/><use xlink:href="#3"/></svg><svg x="2392"><use xlink:href="#a"/><use xlink:href="#b" x="-.004" y="2.146"/><use xlink:href="#3"/></svg><svg x="2484"><use xlink:href="#a"/><use xlink:href="#b" x="-.004" y="4.317"/><use xlink:href="#3"/></svg><svg x="2576"><use xlink:href="#a"/><use xlink:href="#b" x="-.004" y="6.488"/><use xlink:href="#3"/><use xlink:href="#4" y="4.342"/></svg><svg x="2668"><use xlink:href="#a"/><use xlink:href="#b" x="-.004" y="8.659"/><use xlink:href="#3"/><use xlink:href="#4" y="4.342"/><use xlink:href="#5" y="6.513"/></svg><svg x="2760"><use xlink:href="#a"/><use xlink:href="#b" x="-.004" y="10.83"/><use xlink:href="#3"/><use xlink:href="#4" y="4.342"/><use xlink:href="#5" y="6.513"/><use xlink:href="#6" y="8.684"/></svg><svg x="2852"><use xlink:href="#a"/><use xlink:href="#b" x="-.004" y="13.001"/><use xlink:href="#3"/><use xlink:href="#4" y="4.342"/><use xlink:href="#5" y="6.513"/><use xlink:href="#6" y="8.684"/><use xlink:href="#7" y="10.855"/></svg><svg x="2944"><use xlink:href="#a"/><use xlink:href="#b" x="-.004" y="15.172"/><use xlink:href="#3"/><use xlink:href="#4" y="4.342"/><use xlink:href="#5" y="6.513"/><use xlink:href="#6" y="8.684"/><use xlink:href="#7" y="10.855"/></svg><svg x="3036"><use xlink:href="#a"/><use xlink:href="#b" x="-.004" y="17.343"/><use xlink:href="#3"/><use xlink:href="#4" y="4.342"/><use xlink:href="#5" y="6.513"/><use xlink:href="#6" y="8.684"/><use xlink:href="#7" y="10.855"/><use xlink:href="#8" y="15.197"/></svg><svg x="3128"><use xlink:href="#a"/><use xlink:href="#b" x="-.004" y="19.514"/><use xlink:href="#3"/><use xlink:href="#4" y="4.342"/><use xlink:href="#5" y="6.513"/><use xlink:href="#6" y="8.684"/><use xlink:href="#7" y="10.855"/><use xlink:href="#8" y="15.197"/></svg><svg x="3220"><use xlink:href="#a"/><use xlink:href="#b" x="-.004" y="21.685"/><use xlink:href="#3"/><use xlink:href="#4" y="4.342"/><use xlink:href="#5" y="6.513"/><use xlink:href="#6" y="8.684"/><use xlink:href="#7" y="10.855"/><use xlink:href="#8" y="15.197"/><use xlink:href="#9" y="19.539"/></svg><svg x="3312"><use xlink:href="#a"/><use xlink:href="#b" x="-.004" y="23.856"/><use xlink:href="#3"/><use xlink:href="#4" y="4.342"/><use xlink:href="#5" y="6.513"/><use xlink:href="#6" y="8.684"/><use xlink:href="#7" y="10.855"/><use xlink:href="#8" y="15.197"/><use xlink:href="#9" y="19.539"/></svg><svg x="3404"><use xlink:href="#a"/><use xlink:href="#b" x="-.004" y="26.027"/><use xlink:href="#3"/><use xlink:href="#4" y="4.342"/><use xlink:href="#5" y="6.513"/><use xlink:href="#6" y="8.684"/><use xlink:href="#7" y="10.855"/><use xlink:href="#8" y="15.197"/><use xlink:href="#9" y="19.539"/><use xlink:href="#10" y="23.881"/></svg><svg x="3496"><use xlink:href="#a"/><use xlink:href="#b" x="-.004" y="28.198"/><use xlink:href="#3"/><use xlink:href="#4" y="4.342"/><use xlink:href="#5" y="6.513"/><use xlink:href="#6" y="8.684"/><use xlink:href="#7" y="10.855"/><use xlink:href="#8" y="15.197"/><use xlink:href="#9" y="19.539"/><use xlink:href="#10" y="23.881"/><use xlink:href="#11" y="26.052"/></svg><svg x="3588"><use xlink:href="#a"/><use xlink:href="#b" x="-.004" y="30.369"/><use xlink:href="#3"/><use xlink:href="#4" y="4.342"/><use xlink:href="#5" y="6.513"/><use xlink:href="#6" y="8.684"/><use xlink:href="#7" y="10.855"/><use xlink:href="#8" y="15.197"/><use xlink:href="#9" y="19.539"/><use xlink:href="#10" y="23.881"/><use xlink:href="#11" y="26.052"/></svg><svg x="3680"><use xlink:href="#a"/><use xlink:href="#b" x="-.004" y="32.54"/><use xlink:href="#3"/><use xlink:href="#4" y="4.342"/><use xlink:href="#5" y="6.513"/><use xlink:href="#6" y="8.684"/><use xlink:href="#7" y="10.855"/><use xlink:href="#8" y="15.197"/><use xlink:href="#9" y="19.539"/><use xlink:href="#10" y="23.881"/><use xlink:href="#11" y="26.052"/><use xlink:href="#5" y="30.394"/></svg><svg x="3772"><use xlink:href="#a"/><use xlink:href="#b" x="-.004" y="34.711"/><use xlink:href="#3"/><use xlink:href="#4" y="4.342"/><use xlink:href="#5" y="6.513"/><use xlink:href="#6" y="8.684"/><use xlink:href="#7" y="10.855"/><use xlink:href="#8" y="15.197"/><use xlink:href="#9" y="19.539"/><use xlink:href="#10" y="23.881"/><use xlink:href="#11" y="26.052"/><use xlink:href="#5" y="30.394"/><use xlink:href="#12" y="32.565"/></svg><svg x="3864"><use xlink:href="#a"/><use xlink:href="#b" x="-.004" y="36.882"/><use xlink:href="#3"/><use xlink:href="#4" y="4.342"/><use xlink:href="#5" y="6.513"/><use xlink:href="#6" y="8.684"/><use xlink:href="#7" y="10.855"/><use xlink:href="#8" y="15.197"/><use xlink:href="#9" y="19.539"/><use xlink:href="#10" y="23.881"/><use xlink:href="#11" y="26.052"/><use xlink:href="#5" y="30.394"/><use xlink:href="#12" y="32.565"/><use xlink:href="#13" y="34.736"/></svg><svg x="3956"><use xlink:href="#a"/><use xlink:href="#b" x="-.004" y="39.053"/><use xlink:href="#3"/><use xlink:href="#4" y="4.342"/><use xlink:href="#5" y="6.513"/><use xlink:href="#6" y="8.684"/><use xlink:href="#7" y="10.855"/><use xlink:href="#8" y="15.197"/><use xlink:href="#9" y="19.539"/><use xlink:href="#10" y="23.881"/><use xlink:href="#11" y="26.052"/><use xlink:href="#5" y="30.394"/><use xlink:href="#12" y="32.565"/><use xlink:href="#13" y="34.736"/></svg><svg x="4048"><use xlink:href="#a"/><use xlink:href="#b" x="-.004" y="39.053"/><use xlink:href="#3"/><use xlink:href="#4" y="4.342"/><use xlink:href="#5" y="6.513"/><use xlink:href="#6" y="8.684"/><use xlink:href="#7" y="10.855"/><use xlink:href="#8" y="15.197"/><use xlink:href="#9" y="19.539"/><use xlink:href="#10" y="23.881"/><use xlink:href="#11" y="26.052"/><use xlink:href="#5" y="30.394"/><use xlink:href="#12" y="32.565"/><use xlink:href="#13" y="34.736"/></svg></svg></g></g></svg></svg>